<?xml version="1.0" encoding="utf-8" standalone="no"?>
<!DOCTYPE svg PUBLIC "-//W3C//DTD SVG 1.1//EN"
  "http://www.w3.org/Graphics/SVG/1.1/DTD/svg11.dtd">
<!-- Created with matplotlib (https://matplotlib.org/) -->
<svg height="259.09pt" version="1.1" viewBox="0 0 383.403125 259.09" width="383.403125pt" xmlns="http://www.w3.org/2000/svg" xmlns:xlink="http://www.w3.org/1999/xlink">
 <defs>
  <style type="text/css">
*{stroke-linecap:butt;stroke-linejoin:round;}
  </style>
 </defs>
 <g id="figure_1">
  <g id="patch_1">
   <path d="M 0 259.09 
L 383.403125 259.09 
L 383.403125 0 
L 0 0 
z
" style="fill:none;"/>
  </g>
  <g id="axes_1">
   <g id="patch_2">
    <path d="M 41.403125 224.64 
L 376.203125 224.64 
L 376.203125 7.2 
L 41.403125 7.2 
z
" style="fill:#ffffff;"/>
   </g>
   <g id="PathCollection_1">
    <defs>
     <path d="M 0 3 
C 0.795609 3 1.55874 2.683901 2.12132 2.12132 
C 2.683901 1.55874 3 0.795609 3 0 
C 3 -0.795609 2.683901 -1.55874 2.12132 -2.12132 
C 1.55874 -2.683901 0.795609 -3 0 -3 
C -0.795609 -3 -1.55874 -2.683901 -2.12132 -2.12132 
C -2.683901 -1.55874 -3 -0.795609 -3 0 
C -3 0.795609 -2.683901 1.55874 -2.12132 2.12132 
C -1.55874 2.683901 -0.795609 3 0 3 
z
" id="md7994dd572" style="stroke:#1f77b4;"/>
    </defs>
    <g clip-path="url(#p58afba5080)">
     <use style="fill:#1f77b4;stroke:#1f77b4;" x="316.27616" xlink:href="#md7994dd572" y="212.355459"/>
     <use style="fill:#1f77b4;stroke:#1f77b4;" x="182.149812" xlink:href="#md7994dd572" y="173.890744"/>
     <use style="fill:#1f77b4;stroke:#1f77b4;" x="145.351045" xlink:href="#md7994dd572" y="115.660872"/>
     <use style="fill:#1f77b4;stroke:#1f77b4;" x="212.414219" xlink:href="#md7994dd572" y="130.293698"/>
     <use style="fill:#1f77b4;stroke:#1f77b4;" x="141.911908" xlink:href="#md7994dd572" y="62.486649"/>
     <use style="fill:#1f77b4;stroke:#1f77b4;" x="86.5418" xlink:href="#md7994dd572" y="26.161066"/>
     <use style="fill:#1f77b4;stroke:#1f77b4;" x="148.790182" xlink:href="#md7994dd572" y="109.978554"/>
     <use style="fill:#1f77b4;stroke:#1f77b4;" x="181.118071" xlink:href="#md7994dd572" y="162.036938"/>
     <use style="fill:#1f77b4;stroke:#1f77b4;" x="291.170459" xlink:href="#md7994dd572" y="201.884553"/>
     <use style="fill:#1f77b4;stroke:#1f77b4;" x="163.234558" xlink:href="#md7994dd572" y="141.557855"/>
     <use style="fill:#1f77b4;stroke:#1f77b4;" x="99.610521" xlink:href="#md7994dd572" y="91.918885"/>
     <use style="fill:#1f77b4;stroke:#1f77b4;" x="140.192339" xlink:href="#md7994dd572" y="78.616075"/>
     <use style="fill:#1f77b4;stroke:#1f77b4;" x="148.446268" xlink:href="#md7994dd572" y="92.357817"/>
     <use style="fill:#1f77b4;stroke:#1f77b4;" x="92.732247" xlink:href="#md7994dd572" y="63.348648"/>
     <use style="fill:#1f77b4;stroke:#1f77b4;" x="105.800968" xlink:href="#md7994dd572" y="65.495712"/>
     <use style="fill:#1f77b4;stroke:#1f77b4;" x="117.837948" xlink:href="#md7994dd572" y="92.463584"/>
     <use style="fill:#1f77b4;stroke:#1f77b4;" x="112.679242" xlink:href="#md7994dd572" y="82.28618"/>
     <use style="fill:#1f77b4;stroke:#1f77b4;" x="202.784635" xlink:href="#md7994dd572" y="155.267867"/>
     <use style="fill:#1f77b4;stroke:#1f77b4;" x="131.250583" xlink:href="#md7994dd572" y="112.178502"/>
     <use style="fill:#1f77b4;stroke:#1f77b4;" x="141.567994" xlink:href="#md7994dd572" y="89.443944"/>
     <use style="fill:#1f77b4;stroke:#1f77b4;" x="117.837948" xlink:href="#md7994dd572" y="98.666802"/>
     <use style="fill:#1f77b4;stroke:#1f77b4;" x="156.356284" xlink:href="#md7994dd572" y="120.602822"/>
     <use style="fill:#1f77b4;stroke:#1f77b4;" x="84.134404" xlink:href="#md7994dd572" y="53.205618"/>
     <use style="fill:#1f77b4;stroke:#1f77b4;" x="72.097424" xlink:href="#md7994dd572" y="98.130036"/>
     <use style="fill:#1f77b4;stroke:#1f77b4;" x="360.984943" xlink:href="#md7994dd572" y="202.429251"/>
     <use style="fill:#1f77b4;stroke:#1f77b4;" x="353.418841" xlink:href="#md7994dd572" y="186.93707"/>
     <use style="fill:#1f77b4;stroke:#1f77b4;" x="304.23918" xlink:href="#md7994dd572" y="214.756364"/>
     <use style="fill:#1f77b4;stroke:#1f77b4;" x="308.022231" xlink:href="#md7994dd572" y="207.841864"/>
     <use style="fill:#1f77b4;stroke:#1f77b4;" x="323.842262" xlink:href="#md7994dd572" y="206.107289"/>
     <use style="fill:#1f77b4;stroke:#1f77b4;" x="299.080475" xlink:href="#md7994dd572" y="209.626677"/>
     <use style="fill:#1f77b4;stroke:#1f77b4;" x="309.397886" xlink:href="#md7994dd572" y="210.747805"/>
     <use style="fill:#1f77b4;stroke:#1f77b4;" x="277.413911" xlink:href="#md7994dd572" y="196.99813"/>
     <use style="fill:#1f77b4;stroke:#1f77b4;" x="258.84257" xlink:href="#md7994dd572" y="157.10292"/>
     <use style="fill:#1f77b4;stroke:#1f77b4;" x="269.847809" xlink:href="#md7994dd572" y="194.829912"/>
     <use style="fill:#1f77b4;stroke:#1f77b4;" x="262.281707" xlink:href="#md7994dd572" y="191.40307"/>
     <use style="fill:#1f77b4;stroke:#1f77b4;" x="257.123002" xlink:href="#md7994dd572" y="173.578732"/>
     <use style="fill:#1f77b4;stroke:#1f77b4;" x="245.773849" xlink:href="#md7994dd572" y="137.567805"/>
     <use style="fill:#1f77b4;stroke:#1f77b4;" x="251.964296" xlink:href="#md7994dd572" y="195.877003"/>
     <use style="fill:#1f77b4;stroke:#1f77b4;" x="238.207747" xlink:href="#md7994dd572" y="173.705652"/>
     <use style="fill:#1f77b4;stroke:#1f77b4;" x="227.546422" xlink:href="#md7994dd572" y="181.778298"/>
     <use style="fill:#1f77b4;stroke:#1f77b4;" x="202.784635" xlink:href="#md7994dd572" y="122.017452"/>
     <use style="fill:#1f77b4;stroke:#1f77b4;" x="181.461985" xlink:href="#md7994dd572" y="81.931862"/>
     <use style="fill:#1f77b4;stroke:#1f77b4;" x="152.229319" xlink:href="#md7994dd572" y="73.594799"/>
     <use style="fill:#1f77b4;stroke:#1f77b4;" x="152.229319" xlink:href="#md7994dd572" y="87.270437"/>
     <use style="fill:#1f77b4;stroke:#1f77b4;" x="132.282324" xlink:href="#md7994dd572" y="54.509193"/>
     <use style="fill:#1f77b4;stroke:#1f77b4;" x="145.007131" xlink:href="#md7994dd572" y="101.821295"/>
     <use style="fill:#1f77b4;stroke:#1f77b4;" x="56.621307" xlink:href="#md7994dd572" y="77.349518"/>
     <use style="fill:#1f77b4;stroke:#1f77b4;" x="93.763988" xlink:href="#md7994dd572" y="60.905436"/>
     <use style="fill:#1f77b4;stroke:#1f77b4;" x="116.806207" xlink:href="#md7994dd572" y="88.933619"/>
     <use style="fill:#1f77b4;stroke:#1f77b4;" x="127.123618" xlink:href="#md7994dd572" y="80.816023"/>
     <use style="fill:#1f77b4;stroke:#1f77b4;" x="99.954435" xlink:href="#md7994dd572" y="17.083636"/>
     <use style="fill:#1f77b4;stroke:#1f77b4;" x="141.911908" xlink:href="#md7994dd572" y="70.458816"/>
     <use style="fill:#1f77b4;stroke:#1f77b4;" x="166.329781" xlink:href="#md7994dd572" y="73.338315"/>
    </g>
   </g>
   <g id="matplotlib.axis_1">
    <g id="xtick_1">
     <g id="line2d_1">
      <defs>
       <path d="M 0 0 
L 0 3.5 
" id="mdf315c8605" style="stroke:#000000;stroke-width:0.8;"/>
      </defs>
      <g>
       <use style="stroke:#000000;stroke-width:0.8;" x="92.732247" xlink:href="#mdf315c8605" y="224.64"/>
      </g>
     </g>
     <g id="text_1">
      <!-- 34 -->
      <defs>
       <path d="M 44.140625 20.3125 
Q 44.140625 11.328125 38.46875 6.046875 
Q 32.8125 0.78125 24.21875 0.78125 
Q 15.625 0.78125 9.953125 6.046875 
Q 4.296875 11.328125 4.296875 22.265625 
L 13.28125 22.265625 
Q 13.28125 14.84375 16.203125 11.515625 
Q 19.140625 8.203125 24.21875 8.203125 
Q 29.296875 8.203125 32.03125 11.328125 
Q 34.765625 14.453125 34.765625 21.09375 
Q 34.765625 26.5625 31.828125 29.6875 
Q 28.90625 32.8125 21.484375 32.8125 
L 21.484375 39.453125 
Q 27.734375 39.453125 30.65625 42.578125 
Q 33.59375 45.703125 33.59375 51.953125 
Q 33.59375 56.640625 31.4375 59.375 
Q 29.296875 62.109375 24.609375 62.109375 
Q 19.921875 62.109375 17.375 58.78125 
Q 14.84375 55.46875 14.453125 49.21875 
L 5.859375 49.21875 
Q 6.640625 58.203125 11.515625 63.671875 
Q 16.40625 69.140625 24.609375 69.140625 
Q 33.203125 69.140625 37.890625 64.25 
Q 42.578125 59.375 42.578125 52.34375 
Q 42.578125 45.703125 40.234375 41.984375 
Q 37.890625 38.28125 32.421875 36.328125 
Q 37.890625 35.15625 41.015625 30.859375 
Q 44.140625 26.5625 44.140625 20.3125 
z
" id="SimHei-51"/>
       <path d="M 46.484375 18.75 
L 38.28125 18.75 
L 38.28125 1.5625 
L 29.296875 1.5625 
L 29.296875 18.75 
L 3.125 18.75 
L 3.125 26.171875 
L 29.296875 69.140625 
L 38.28125 69.140625 
L 38.28125 26.171875 
L 46.484375 26.171875 
z
M 29.296875 26.171875 
L 29.296875 55.078125 
L 11.71875 26.171875 
z
" id="SimHei-52"/>
      </defs>
      <g transform="translate(87.732247 238.475937)scale(0.1 -0.1)">
       <use xlink:href="#SimHei-51"/>
       <use x="50" xlink:href="#SimHei-52"/>
      </g>
     </g>
    </g>
    <g id="xtick_2">
     <g id="line2d_2">
      <g>
       <use style="stroke:#000000;stroke-width:0.8;" x="161.514989" xlink:href="#mdf315c8605" y="224.64"/>
      </g>
     </g>
     <g id="text_2">
      <!-- 36 -->
      <defs>
       <path d="M 44.53125 24.21875 
Q 44.53125 13.28125 39.84375 7.03125 
Q 35.15625 0.78125 25.78125 0.78125 
Q 16.40625 0.78125 10.9375 8.59375 
Q 5.46875 16.40625 5.46875 33.984375 
Q 5.46875 50 11.125 59.5625 
Q 16.796875 69.140625 27.34375 69.140625 
Q 34.765625 69.140625 39.25 63.671875 
Q 43.75 58.203125 43.75 51.5625 
L 34.765625 51.5625 
Q 34.765625 55.46875 32.609375 58.59375 
Q 30.46875 61.71875 26.953125 61.71875 
Q 21.09375 61.71875 17.96875 55.65625 
Q 14.84375 49.609375 14.453125 37.109375 
Q 17.1875 42.1875 20.3125 44.140625 
Q 23.4375 46.09375 27.734375 46.09375 
Q 35.15625 46.09375 39.84375 40.234375 
Q 44.53125 34.375 44.53125 24.21875 
z
M 35.15625 24.21875 
Q 35.15625 31.25 32.8125 35.15625 
Q 30.46875 39.0625 26.171875 39.0625 
Q 21.09375 39.0625 18.15625 35.15625 
Q 15.234375 31.25 15.234375 25.78125 
Q 15.234375 17.1875 18.15625 12.5 
Q 21.09375 7.8125 26.171875 7.8125 
Q 29.6875 7.8125 32.421875 11.328125 
Q 35.15625 14.84375 35.15625 24.21875 
z
" id="SimHei-54"/>
      </defs>
      <g transform="translate(156.514989 238.475937)scale(0.1 -0.1)">
       <use xlink:href="#SimHei-51"/>
       <use x="50" xlink:href="#SimHei-54"/>
      </g>
     </g>
    </g>
    <g id="xtick_3">
     <g id="line2d_3">
      <g>
       <use style="stroke:#000000;stroke-width:0.8;" x="230.297732" xlink:href="#mdf315c8605" y="224.64"/>
      </g>
     </g>
     <g id="text_3">
      <!-- 38 -->
      <defs>
       <path d="M 44.921875 20.703125 
Q 44.921875 10.9375 39.453125 5.859375 
Q 33.984375 0.78125 24.609375 0.78125 
Q 15.234375 0.78125 9.765625 5.859375 
Q 4.296875 10.9375 4.296875 20.703125 
Q 4.296875 25.78125 7.421875 29.875 
Q 10.546875 33.984375 16.015625 35.9375 
Q 11.328125 37.890625 8.78125 41.40625 
Q 6.25 44.921875 6.25 50.390625 
Q 6.25 58.984375 11.71875 64.0625 
Q 17.1875 69.140625 24.609375 69.140625 
Q 32.03125 69.140625 37.5 64.0625 
Q 42.96875 58.984375 42.96875 50.390625 
Q 42.96875 44.921875 40.421875 41.40625 
Q 37.890625 37.890625 33.203125 35.9375 
Q 38.671875 33.984375 41.796875 29.875 
Q 44.921875 25.78125 44.921875 20.703125 
z
M 34.375 50.390625 
Q 34.375 56.640625 31.640625 59.375 
Q 28.90625 62.109375 24.609375 62.109375 
Q 20.3125 62.109375 17.578125 59.375 
Q 14.84375 56.640625 14.84375 50.390625 
Q 14.84375 44.140625 17.765625 41.59375 
Q 20.703125 39.0625 24.609375 39.0625 
Q 28.515625 39.0625 31.4375 41.59375 
Q 34.375 44.140625 34.375 50.390625 
z
M 35.9375 20.703125 
Q 35.9375 26.171875 33 29.296875 
Q 30.078125 32.421875 24.609375 32.421875 
Q 19.140625 32.421875 16.203125 29.296875 
Q 13.28125 26.171875 13.28125 20.703125 
Q 13.28125 14.453125 16.40625 11.125 
Q 19.53125 7.8125 24.609375 7.8125 
Q 29.6875 7.8125 32.8125 11.125 
Q 35.9375 14.453125 35.9375 20.703125 
z
" id="SimHei-56"/>
      </defs>
      <g transform="translate(225.297732 238.475937)scale(0.1 -0.1)">
       <use xlink:href="#SimHei-51"/>
       <use x="50" xlink:href="#SimHei-56"/>
      </g>
     </g>
    </g>
    <g id="xtick_4">
     <g id="line2d_4">
      <g>
       <use style="stroke:#000000;stroke-width:0.8;" x="299.080475" xlink:href="#mdf315c8605" y="224.64"/>
      </g>
     </g>
     <g id="text_4">
      <!-- 40 -->
      <defs>
       <path d="M 46.484375 35.15625 
Q 46.484375 21.09375 41.40625 10.9375 
Q 36.328125 0.78125 25 0.78125 
Q 13.671875 0.78125 8.390625 10.9375 
Q 3.125 21.09375 3.125 35.15625 
Q 3.125 49.21875 8.390625 59.171875 
Q 13.671875 69.140625 25 69.140625 
Q 36.328125 69.140625 41.40625 59.171875 
Q 46.484375 49.21875 46.484375 35.15625 
z
M 37.109375 35.15625 
Q 37.109375 47.65625 34.171875 54.6875 
Q 31.25 61.71875 25 61.71875 
Q 18.75 61.71875 15.625 54.6875 
Q 12.5 47.65625 12.5 35.15625 
Q 12.5 22.65625 15.625 15.421875 
Q 18.75 8.203125 25 8.203125 
Q 31.25 8.203125 34.171875 15.421875 
Q 37.109375 22.65625 37.109375 35.15625 
z
" id="SimHei-48"/>
      </defs>
      <g transform="translate(294.080475 238.475937)scale(0.1 -0.1)">
       <use xlink:href="#SimHei-52"/>
       <use x="50" xlink:href="#SimHei-48"/>
      </g>
     </g>
    </g>
    <g id="xtick_5">
     <g id="line2d_5">
      <g>
       <use style="stroke:#000000;stroke-width:0.8;" x="367.863217" xlink:href="#mdf315c8605" y="224.64"/>
      </g>
     </g>
     <g id="text_5">
      <!-- 42 -->
      <defs>
       <path d="M 44.53125 1.5625 
L 4.6875 1.5625 
L 4.6875 7.8125 
Q 7.03125 14.0625 11.125 19.328125 
Q 15.234375 24.609375 23.046875 31.25 
Q 28.90625 36.328125 31.4375 40.625 
Q 33.984375 44.921875 33.984375 50 
Q 33.984375 55.078125 31.828125 58.390625 
Q 29.6875 61.71875 25 61.71875 
Q 21.09375 61.71875 18.15625 58.203125 
Q 15.234375 54.6875 15.234375 45.703125 
L 6.25 45.703125 
Q 6.640625 57.03125 11.515625 63.078125 
Q 16.40625 69.140625 25.390625 69.140625 
Q 33.984375 69.140625 38.671875 63.859375 
Q 43.359375 58.59375 43.359375 49.609375 
Q 43.359375 42.1875 39.0625 36.71875 
Q 34.765625 31.25 28.515625 25.78125 
Q 21.484375 19.53125 18.75 16.40625 
Q 16.015625 13.28125 13.671875 8.984375 
L 44.53125 8.984375 
z
" id="SimHei-50"/>
      </defs>
      <g transform="translate(362.863217 238.475937)scale(0.1 -0.1)">
       <use xlink:href="#SimHei-52"/>
       <use x="50" xlink:href="#SimHei-50"/>
      </g>
     </g>
    </g>
    <g id="text_6">
     <!-- latitud -->
     <defs>
      <path d="M 28.90625 1.5625 
L 21.09375 1.5625 
L 21.09375 68.359375 
L 28.90625 68.359375 
z
" id="SimHei-108"/>
      <path d="M 45.3125 1.5625 
L 35.9375 1.5625 
Q 35.15625 2.34375 34.765625 3.703125 
Q 34.375 5.078125 34.375 7.03125 
Q 31.640625 3.90625 27.734375 2.34375 
Q 23.828125 0.78125 19.53125 0.78125 
Q 13.28125 0.78125 8.984375 3.90625 
Q 4.6875 7.03125 4.6875 12.890625 
Q 4.6875 18.75 8.59375 22.265625 
Q 12.5 25.78125 20.703125 26.953125 
Q 26.171875 27.734375 30.265625 28.90625 
Q 34.375 30.078125 34.375 32.03125 
Q 34.375 34.375 32.609375 36.71875 
Q 30.859375 39.0625 25 39.0625 
Q 20.3125 39.0625 18.15625 37.296875 
Q 16.015625 35.546875 15.234375 32.421875 
L 6.640625 32.421875 
Q 7.421875 38.671875 12.296875 42.375 
Q 17.1875 46.09375 25 46.09375 
Q 33.59375 46.09375 37.890625 42.1875 
Q 42.1875 38.28125 42.1875 31.25 
L 42.1875 9.765625 
Q 42.1875 7.421875 42.96875 5.46875 
Q 43.75 3.515625 45.3125 1.5625 
z
M 34.375 16.015625 
L 34.375 23.828125 
Q 32.03125 23.046875 29.875 22.453125 
Q 27.734375 21.875 22.65625 21.09375 
Q 16.796875 20.3125 15.03125 18.359375 
Q 13.28125 16.40625 13.28125 13.671875 
Q 13.28125 11.328125 15.03125 9.5625 
Q 16.796875 7.8125 20.3125 7.8125 
Q 23.828125 7.8125 27.921875 9.765625 
Q 32.03125 11.71875 34.375 16.015625 
z
" id="SimHei-97"/>
      <path d="M 43.359375 2.734375 
Q 41.40625 1.953125 38.859375 1.359375 
Q 36.328125 0.78125 32.03125 0.78125 
Q 25 0.78125 20.703125 4.6875 
Q 16.40625 8.59375 16.40625 15.625 
L 16.40625 39.0625 
L 3.125 39.0625 
L 3.125 45.3125 
L 16.40625 45.3125 
L 16.40625 60.546875 
L 24.21875 60.546875 
L 24.21875 45.3125 
L 40.234375 45.3125 
L 40.234375 39.0625 
L 24.21875 39.0625 
L 24.21875 15.234375 
Q 24.21875 12.109375 25.78125 9.953125 
Q 27.34375 7.8125 31.640625 7.8125 
Q 35.9375 7.8125 38.671875 8.59375 
Q 41.40625 9.375 43.359375 10.546875 
z
" id="SimHei-116"/>
      <path d="M 28.515625 57.8125 
L 20.703125 57.8125 
L 20.703125 67.96875 
L 28.515625 67.96875 
z
M 28.515625 1.5625 
L 20.703125 1.5625 
L 20.703125 45.3125 
L 28.515625 45.3125 
z
" id="SimHei-105"/>
      <path d="M 44.140625 1.5625 
L 36.328125 1.5625 
L 36.328125 9.765625 
Q 33.203125 5.46875 29.484375 3.125 
Q 25.78125 0.78125 19.921875 0.78125 
Q 12.890625 0.78125 9.375 4.6875 
Q 5.859375 8.59375 5.859375 14.453125 
L 5.859375 45.3125 
L 13.671875 45.3125 
L 13.671875 17.1875 
Q 13.671875 12.5 16.015625 9.765625 
Q 18.359375 7.03125 22.265625 7.03125 
Q 27.34375 7.03125 31.828125 12.296875 
Q 36.328125 17.578125 36.328125 25.390625 
L 36.328125 45.3125 
L 44.140625 45.3125 
z
" id="SimHei-117"/>
      <path d="M 43.359375 1.5625 
L 35.546875 1.5625 
L 35.546875 7.421875 
Q 33.203125 3.90625 30.078125 2.34375 
Q 26.953125 0.78125 22.65625 0.78125 
Q 14.84375 0.78125 9.375 6.4375 
Q 3.90625 12.109375 3.90625 23.4375 
Q 3.90625 34.765625 9.375 40.625 
Q 14.84375 46.484375 22.65625 46.484375 
Q 26.953125 46.484375 30.078125 44.71875 
Q 33.203125 42.96875 35.546875 39.453125 
L 35.546875 68.359375 
L 43.359375 68.359375 
z
M 35.546875 23.4375 
Q 35.546875 30.859375 32.21875 35.15625 
Q 28.90625 39.453125 24.21875 39.453125 
Q 18.359375 39.453125 15.421875 35.15625 
Q 12.5 30.859375 12.5 23.4375 
Q 12.5 16.015625 15.421875 11.90625 
Q 18.359375 7.8125 24.21875 7.8125 
Q 28.90625 7.8125 32.21875 11.90625 
Q 35.546875 16.015625 35.546875 23.4375 
z
" id="SimHei-100"/>
     </defs>
     <g transform="translate(191.303125 250.600937)scale(0.1 -0.1)">
      <use xlink:href="#SimHei-108"/>
      <use x="50" xlink:href="#SimHei-97"/>
      <use x="100" xlink:href="#SimHei-116"/>
      <use x="150" xlink:href="#SimHei-105"/>
      <use x="200" xlink:href="#SimHei-116"/>
      <use x="250" xlink:href="#SimHei-117"/>
      <use x="300" xlink:href="#SimHei-100"/>
     </g>
    </g>
   </g>
   <g id="matplotlib.axis_2">
    <g id="ytick_1">
     <g id="line2d_6">
      <defs>
       <path d="M 0 0 
L -3.5 0 
" id="m176c1c1f07" style="stroke:#000000;stroke-width:0.8;"/>
      </defs>
      <g>
       <use style="stroke:#000000;stroke-width:0.8;" x="41.403125" xlink:href="#m176c1c1f07" y="198.671888"/>
      </g>
     </g>
     <g id="text_7">
      <!-- 100 -->
      <defs>
       <path d="M 30.46875 1.5625 
L 21.484375 1.5625 
L 21.484375 53.515625 
L 9.765625 53.515625 
L 9.765625 58.203125 
Q 16.796875 58.203125 20.703125 60.9375 
Q 24.609375 63.671875 25.78125 69.140625 
L 30.46875 69.140625 
z
" id="SimHei-49"/>
      </defs>
      <g transform="translate(19.403125 202.089857)scale(0.1 -0.1)">
       <use xlink:href="#SimHei-49"/>
       <use x="50" xlink:href="#SimHei-48"/>
       <use x="100" xlink:href="#SimHei-48"/>
      </g>
     </g>
    </g>
    <g id="ytick_2">
     <g id="line2d_7">
      <g>
       <use style="stroke:#000000;stroke-width:0.8;" x="41.403125" xlink:href="#m176c1c1f07" y="172.230206"/>
      </g>
     </g>
     <g id="text_8">
      <!-- 200 -->
      <g transform="translate(19.403125 175.648175)scale(0.1 -0.1)">
       <use xlink:href="#SimHei-50"/>
       <use x="50" xlink:href="#SimHei-48"/>
       <use x="100" xlink:href="#SimHei-48"/>
      </g>
     </g>
    </g>
    <g id="ytick_3">
     <g id="line2d_8">
      <g>
       <use style="stroke:#000000;stroke-width:0.8;" x="41.403125" xlink:href="#m176c1c1f07" y="145.788524"/>
      </g>
     </g>
     <g id="text_9">
      <!-- 300 -->
      <g transform="translate(19.403125 149.206493)scale(0.1 -0.1)">
       <use xlink:href="#SimHei-51"/>
       <use x="50" xlink:href="#SimHei-48"/>
       <use x="100" xlink:href="#SimHei-48"/>
      </g>
     </g>
    </g>
    <g id="ytick_4">
     <g id="line2d_9">
      <g>
       <use style="stroke:#000000;stroke-width:0.8;" x="41.403125" xlink:href="#m176c1c1f07" y="119.346842"/>
      </g>
     </g>
     <g id="text_10">
      <!-- 400 -->
      <g transform="translate(19.403125 122.764811)scale(0.1 -0.1)">
       <use xlink:href="#SimHei-52"/>
       <use x="50" xlink:href="#SimHei-48"/>
       <use x="100" xlink:href="#SimHei-48"/>
      </g>
     </g>
    </g>
    <g id="ytick_5">
     <g id="line2d_10">
      <g>
       <use style="stroke:#000000;stroke-width:0.8;" x="41.403125" xlink:href="#m176c1c1f07" y="92.90516"/>
      </g>
     </g>
     <g id="text_11">
      <!-- 500 -->
      <defs>
       <path d="M 44.140625 25.78125 
Q 44.140625 14.0625 38.46875 7.421875 
Q 32.8125 0.78125 23.4375 0.78125 
Q 15.234375 0.78125 9.953125 6.25 
Q 4.6875 11.71875 4.296875 21.09375 
L 13.28125 21.09375 
Q 13.28125 15.234375 16.015625 11.71875 
Q 18.75 8.203125 23.828125 8.203125 
Q 28.90625 8.203125 31.828125 12.5 
Q 34.765625 16.796875 34.765625 25.78125 
Q 34.765625 33.59375 32.21875 37.296875 
Q 29.6875 41.015625 25.390625 41.015625 
Q 21.875 41.015625 19.328125 39.453125 
Q 16.796875 37.890625 14.453125 33.984375 
L 6.640625 33.984375 
L 8.984375 68.359375 
L 42.578125 68.359375 
L 42.578125 60.9375 
L 16.40625 60.9375 
L 14.84375 42.96875 
Q 17.1875 45.3125 19.921875 46.484375 
Q 22.65625 47.65625 27.34375 47.65625 
Q 34.765625 47.65625 39.453125 41.984375 
Q 44.140625 36.328125 44.140625 25.78125 
z
" id="SimHei-53"/>
      </defs>
      <g transform="translate(19.403125 96.323129)scale(0.1 -0.1)">
       <use xlink:href="#SimHei-53"/>
       <use x="50" xlink:href="#SimHei-48"/>
       <use x="100" xlink:href="#SimHei-48"/>
      </g>
     </g>
    </g>
    <g id="ytick_6">
     <g id="line2d_11">
      <g>
       <use style="stroke:#000000;stroke-width:0.8;" x="41.403125" xlink:href="#m176c1c1f07" y="66.463478"/>
      </g>
     </g>
     <g id="text_12">
      <!-- 600 -->
      <g transform="translate(19.403125 69.881446)scale(0.1 -0.1)">
       <use xlink:href="#SimHei-54"/>
       <use x="50" xlink:href="#SimHei-48"/>
       <use x="100" xlink:href="#SimHei-48"/>
      </g>
     </g>
    </g>
    <g id="ytick_7">
     <g id="line2d_12">
      <g>
       <use style="stroke:#000000;stroke-width:0.8;" x="41.403125" xlink:href="#m176c1c1f07" y="40.021796"/>
      </g>
     </g>
     <g id="text_13">
      <!-- 700 -->
      <defs>
       <path d="M 43.359375 60.15625 
L 25 1.5625 
L 16.015625 1.5625 
L 34.765625 60.9375 
L 6.25 60.9375 
L 6.25 68.359375 
L 43.359375 68.359375 
z
" id="SimHei-55"/>
      </defs>
      <g transform="translate(19.403125 43.439764)scale(0.1 -0.1)">
       <use xlink:href="#SimHei-55"/>
       <use x="50" xlink:href="#SimHei-48"/>
       <use x="100" xlink:href="#SimHei-48"/>
      </g>
     </g>
    </g>
    <g id="ytick_8">
     <g id="line2d_13">
      <g>
       <use style="stroke:#000000;stroke-width:0.8;" x="41.403125" xlink:href="#m176c1c1f07" y="13.580113"/>
      </g>
     </g>
     <g id="text_14">
      <!-- 800 -->
      <g transform="translate(19.403125 16.998082)scale(0.1 -0.1)">
       <use xlink:href="#SimHei-56"/>
       <use x="50" xlink:href="#SimHei-48"/>
       <use x="100" xlink:href="#SimHei-48"/>
      </g>
     </g>
    </g>
    <g id="text_15">
     <!-- amount of precipitation -->
     <defs>
      <path d="M 48.046875 1.5625 
L 40.234375 1.5625 
L 40.234375 33.203125 
Q 40.234375 35.546875 39.453125 37.109375 
Q 38.671875 38.671875 36.328125 38.671875 
Q 33.59375 38.671875 31.25 35.734375 
Q 28.90625 32.8125 28.90625 28.125 
L 28.90625 1.5625 
L 21.09375 1.5625 
L 21.09375 33.203125 
Q 21.09375 35.546875 20.3125 37.109375 
Q 19.53125 38.671875 17.1875 38.671875 
Q 14.453125 38.671875 12.109375 35.734375 
Q 9.765625 32.8125 9.765625 28.125 
L 9.765625 1.5625 
L 1.953125 1.5625 
L 1.953125 45.3125 
L 9.765625 45.3125 
L 9.765625 39.453125 
Q 11.71875 42.578125 14.453125 44.328125 
Q 17.1875 46.09375 20.3125 46.09375 
Q 23.4375 46.09375 25.578125 44.328125 
Q 27.734375 42.578125 28.515625 39.453125 
Q 30.46875 42.578125 33 44.328125 
Q 35.546875 46.09375 38.671875 46.09375 
Q 43.359375 46.09375 45.703125 43.546875 
Q 48.046875 41.015625 48.046875 36.328125 
z
" id="SimHei-109"/>
      <path d="M 46.09375 23.4375 
Q 46.09375 13.28125 39.84375 7.03125 
Q 33.59375 0.78125 25 0.78125 
Q 16.40625 0.78125 10.15625 7.03125 
Q 3.90625 13.28125 3.90625 23.4375 
Q 3.90625 33.59375 10.15625 39.84375 
Q 16.40625 46.09375 25 46.09375 
Q 33.59375 46.09375 39.84375 39.84375 
Q 46.09375 33.59375 46.09375 23.4375 
z
M 37.5 23.4375 
Q 37.5 31.25 33.59375 35.15625 
Q 29.6875 39.0625 25 39.0625 
Q 20.3125 39.0625 16.40625 35.15625 
Q 12.5 31.25 12.5 23.4375 
Q 12.5 15.625 16.40625 11.71875 
Q 20.3125 7.8125 25 7.8125 
Q 29.6875 7.8125 33.59375 11.71875 
Q 37.5 15.625 37.5 23.4375 
z
" id="SimHei-111"/>
      <path d="M 44.140625 1.5625 
L 36.328125 1.5625 
L 36.328125 29.6875 
Q 36.328125 34.375 33.984375 37.109375 
Q 31.640625 39.84375 27.734375 39.84375 
Q 22.65625 39.84375 18.15625 34.5625 
Q 13.671875 29.296875 13.671875 21.484375 
L 13.671875 1.5625 
L 5.859375 1.5625 
L 5.859375 45.3125 
L 13.671875 45.3125 
L 13.671875 37.109375 
Q 16.796875 41.40625 20.5 43.75 
Q 24.21875 46.09375 30.078125 46.09375 
Q 37.109375 46.09375 40.625 42.1875 
Q 44.140625 38.28125 44.140625 32.421875 
z
" id="SimHei-110"/>
      <path id="SimHei-32"/>
      <path d="M 44.921875 59.375 
Q 42.96875 60.546875 40.234375 61.328125 
Q 37.5 62.109375 33.203125 62.109375 
Q 28.90625 62.109375 27.34375 59.953125 
Q 25.78125 57.8125 25.78125 54.6875 
L 25.78125 45.3125 
L 41.796875 45.3125 
L 41.796875 39.0625 
L 25.78125 39.0625 
L 25.78125 1.5625 
L 17.96875 1.5625 
L 17.96875 39.0625 
L 4.6875 39.0625 
L 4.6875 45.3125 
L 17.96875 45.3125 
L 17.96875 54.296875 
Q 17.96875 61.328125 22.265625 65.234375 
Q 26.5625 69.140625 33.59375 69.140625 
Q 37.890625 69.140625 40.421875 68.546875 
Q 42.96875 67.96875 44.921875 67.1875 
z
" id="SimHei-102"/>
      <path d="M 44.53125 23.4375 
Q 44.53125 12.109375 39.0625 6.25 
Q 33.59375 0.390625 25.78125 0.390625 
Q 21.484375 0.390625 18.359375 2.140625 
Q 15.234375 3.90625 12.890625 7.421875 
L 12.890625 -12.890625 
L 5.078125 -12.890625 
L 5.078125 45.3125 
L 12.890625 45.3125 
L 12.890625 39.453125 
Q 15.234375 42.96875 18.359375 44.53125 
Q 21.484375 46.09375 25.78125 46.09375 
Q 33.59375 46.09375 39.0625 40.421875 
Q 44.53125 34.765625 44.53125 23.4375 
z
M 35.9375 23.4375 
Q 35.9375 30.859375 33 34.953125 
Q 30.078125 39.0625 24.21875 39.0625 
Q 19.53125 39.0625 16.203125 34.953125 
Q 12.890625 30.859375 12.890625 23.4375 
Q 12.890625 16.015625 16.203125 11.71875 
Q 19.53125 7.421875 24.21875 7.421875 
Q 30.078125 7.421875 33 11.71875 
Q 35.9375 16.015625 35.9375 23.4375 
z
" id="SimHei-112"/>
      <path d="M 39.453125 37.5 
Q 32.03125 38.671875 26.953125 35.34375 
Q 21.875 32.03125 18.359375 23.828125 
L 18.359375 1.5625 
L 10.546875 1.5625 
L 10.546875 45.3125 
L 18.359375 45.3125 
L 18.359375 33.984375 
Q 21.875 40.234375 27.140625 43.15625 
Q 32.421875 46.09375 39.453125 46.09375 
z
" id="SimHei-114"/>
      <path d="M 44.921875 16.40625 
Q 44.140625 9.375 38.671875 5.078125 
Q 33.203125 0.78125 25.78125 0.78125 
Q 16.40625 0.78125 10.34375 6.828125 
Q 4.296875 12.890625 4.296875 23.4375 
Q 4.296875 33.984375 10.34375 40.03125 
Q 16.40625 46.09375 25.78125 46.09375 
Q 33.984375 46.09375 39.25 40.8125 
Q 44.53125 35.546875 44.53125 23.4375 
L 12.890625 23.4375 
Q 12.890625 14.84375 16.59375 11.328125 
Q 20.3125 7.8125 25.78125 7.8125 
Q 30.078125 7.8125 32.8125 9.953125 
Q 35.546875 12.109375 36.328125 16.40625 
z
M 35.546875 29.6875 
Q 34.765625 35.15625 32.03125 37.296875 
Q 29.296875 39.453125 25 39.453125 
Q 21.09375 39.453125 17.96875 37.296875 
Q 14.84375 35.15625 13.28125 29.6875 
z
" id="SimHei-101"/>
      <path d="M 44.921875 19.140625 
Q 44.921875 10.9375 39.25 5.859375 
Q 33.59375 0.78125 25 0.78125 
Q 16.40625 0.78125 10.15625 6.828125 
Q 3.90625 12.890625 3.90625 23.4375 
Q 3.90625 33.984375 10.15625 40.03125 
Q 16.40625 46.09375 25 46.09375 
Q 33.59375 46.09375 38.671875 41.59375 
Q 43.75 37.109375 43.75 30.859375 
L 35.15625 30.859375 
Q 34.765625 35.546875 31.828125 37.296875 
Q 28.90625 39.0625 25 39.0625 
Q 20.3125 39.0625 16.40625 35.34375 
Q 12.5 31.640625 12.5 23.4375 
Q 12.5 15.234375 16.40625 11.515625 
Q 20.3125 7.8125 25 7.8125 
Q 30.078125 7.8125 33.203125 10.546875 
Q 36.328125 13.28125 36.328125 19.140625 
z
" id="SimHei-99"/>
     </defs>
     <g transform="translate(14.114062 173.42)rotate(-90)scale(0.1 -0.1)">
      <use xlink:href="#SimHei-97"/>
      <use x="50" xlink:href="#SimHei-109"/>
      <use x="100" xlink:href="#SimHei-111"/>
      <use x="150" xlink:href="#SimHei-117"/>
      <use x="200" xlink:href="#SimHei-110"/>
      <use x="250" xlink:href="#SimHei-116"/>
      <use x="300" xlink:href="#SimHei-32"/>
      <use x="350" xlink:href="#SimHei-111"/>
      <use x="400" xlink:href="#SimHei-102"/>
      <use x="450" xlink:href="#SimHei-32"/>
      <use x="500" xlink:href="#SimHei-112"/>
      <use x="550" xlink:href="#SimHei-114"/>
      <use x="600" xlink:href="#SimHei-101"/>
      <use x="650" xlink:href="#SimHei-99"/>
      <use x="700" xlink:href="#SimHei-105"/>
      <use x="750" xlink:href="#SimHei-112"/>
      <use x="800" xlink:href="#SimHei-105"/>
      <use x="850" xlink:href="#SimHei-116"/>
      <use x="900" xlink:href="#SimHei-97"/>
      <use x="950" xlink:href="#SimHei-116"/>
      <use x="1000" xlink:href="#SimHei-105"/>
      <use x="1050" xlink:href="#SimHei-111"/>
      <use x="1100" xlink:href="#SimHei-110"/>
     </g>
    </g>
   </g>
   <g id="patch_3">
    <path d="M 41.403125 224.64 
L 41.403125 7.2 
" style="fill:none;stroke:#000000;stroke-linecap:square;stroke-linejoin:miter;stroke-width:0.8;"/>
   </g>
   <g id="patch_4">
    <path d="M 376.203125 224.64 
L 376.203125 7.2 
" style="fill:none;stroke:#000000;stroke-linecap:square;stroke-linejoin:miter;stroke-width:0.8;"/>
   </g>
   <g id="patch_5">
    <path d="M 41.403125 224.64 
L 376.203125 224.64 
" style="fill:none;stroke:#000000;stroke-linecap:square;stroke-linejoin:miter;stroke-width:0.8;"/>
   </g>
   <g id="patch_6">
    <path d="M 41.403125 7.2 
L 376.203125 7.2 
" style="fill:none;stroke:#000000;stroke-linecap:square;stroke-linejoin:miter;stroke-width:0.8;"/>
   </g>
  </g>
 </g>
 <defs>
  <clipPath id="p58afba5080">
   <rect height="217.44" width="334.8" x="41.403125" y="7.2"/>
  </clipPath>
 </defs>
</svg>
