<?xml version="1.0" encoding="utf-8" standalone="no"?>
<!DOCTYPE svg PUBLIC "-//W3C//DTD SVG 1.1//EN"
  "http://www.w3.org/Graphics/SVG/1.1/DTD/svg11.dtd">
<!-- Created with matplotlib (https://matplotlib.org/) -->
<svg height="260.379062pt" version="1.1" viewBox="0 0 384.653125 260.379062" width="384.653125pt" xmlns="http://www.w3.org/2000/svg" xmlns:xlink="http://www.w3.org/1999/xlink">
 <defs>
  <style type="text/css">
*{stroke-linecap:butt;stroke-linejoin:round;}
  </style>
 </defs>
 <g id="figure_1">
  <g id="patch_1">
   <path d="M 0 260.379062 
L 384.653125 260.379062 
L 384.653125 0 
L 0 0 
z
" style="fill:none;"/>
  </g>
  <g id="axes_1">
   <g id="patch_2">
    <path d="M 42.653125 224.64 
L 377.453125 224.64 
L 377.453125 7.2 
L 42.653125 7.2 
z
" style="fill:#ffffff;"/>
   </g>
   <g id="PathCollection_1">
    <defs>
     <path d="M 0 3 
C 0.795609 3 1.55874 2.683901 2.12132 2.12132 
C 2.683901 1.55874 3 0.795609 3 0 
C 3 -0.795609 2.683901 -1.55874 2.12132 -2.12132 
C 1.55874 -2.683901 0.795609 -3 0 -3 
C -0.795609 -3 -1.55874 -2.683901 -2.12132 -2.12132 
C -2.683901 -1.55874 -3 -0.795609 -3 0 
C -3 0.795609 -2.683901 1.55874 -2.12132 2.12132 
C -1.55874 2.683901 -0.795609 3 0 3 
z
" id="m015c142ed2" style="stroke:#1f77b4;"/>
    </defs>
    <g clip-path="url(#p1348ab7750)">
     <use style="fill:#1f77b4;stroke:#1f77b4;" x="317.52616" xlink:href="#m015c142ed2" y="193.681912"/>
     <use style="fill:#1f77b4;stroke:#1f77b4;" x="183.399812" xlink:href="#m015c142ed2" y="158.895519"/>
     <use style="fill:#1f77b4;stroke:#1f77b4;" x="146.601045" xlink:href="#m015c142ed2" y="106.234081"/>
     <use style="fill:#1f77b4;stroke:#1f77b4;" x="213.664219" xlink:href="#m015c142ed2" y="119.467592"/>
     <use style="fill:#1f77b4;stroke:#1f77b4;" x="143.161908" xlink:href="#m015c142ed2" y="58.144828"/>
     <use style="fill:#1f77b4;stroke:#1f77b4;" x="87.7918" xlink:href="#m015c142ed2" y="25.293005"/>
     <use style="fill:#1f77b4;stroke:#1f77b4;" x="150.040182" xlink:href="#m015c142ed2" y="101.095154"/>
     <use style="fill:#1f77b4;stroke:#1f77b4;" x="182.368071" xlink:href="#m015c142ed2" y="148.175274"/>
     <use style="fill:#1f77b4;stroke:#1f77b4;" x="292.420459" xlink:href="#m015c142ed2" y="184.212322"/>
     <use style="fill:#1f77b4;stroke:#1f77b4;" x="164.484558" xlink:href="#m015c142ed2" y="129.654575"/>
     <use style="fill:#1f77b4;stroke:#1f77b4;" x="100.860521" xlink:href="#m015c142ed2" y="84.762504"/>
     <use style="fill:#1f77b4;stroke:#1f77b4;" x="141.442339" xlink:href="#m015c142ed2" y="72.731821"/>
     <use style="fill:#1f77b4;stroke:#1f77b4;" x="149.696268" xlink:href="#m015c142ed2" y="85.159462"/>
     <use style="fill:#1f77b4;stroke:#1f77b4;" x="93.982247" xlink:href="#m015c142ed2" y="58.924395"/>
     <use style="fill:#1f77b4;stroke:#1f77b4;" x="107.050968" xlink:href="#m015c142ed2" y="60.866139"/>
     <use style="fill:#1f77b4;stroke:#1f77b4;" x="119.087948" xlink:href="#m015c142ed2" y="85.255114"/>
     <use style="fill:#1f77b4;stroke:#1f77b4;" x="113.929242" xlink:href="#m015c142ed2" y="76.05096"/>
     <use style="fill:#1f77b4;stroke:#1f77b4;" x="204.034635" xlink:href="#m015c142ed2" y="142.05352"/>
     <use style="fill:#1f77b4;stroke:#1f77b4;" x="132.500583" xlink:href="#m015c142ed2" y="103.084725"/>
     <use style="fill:#1f77b4;stroke:#1f77b4;" x="142.817994" xlink:href="#m015c142ed2" y="82.524238"/>
     <use style="fill:#1f77b4;stroke:#1f77b4;" x="119.087948" xlink:href="#m015c142ed2" y="90.865128"/>
     <use style="fill:#1f77b4;stroke:#1f77b4;" x="157.606284" xlink:href="#m015c142ed2" y="110.70344"/>
     <use style="fill:#1f77b4;stroke:#1f77b4;" x="85.384404" xlink:href="#m015c142ed2" y="49.751328"/>
     <use style="fill:#1f77b4;stroke:#1f77b4;" x="73.347424" xlink:href="#m015c142ed2" y="90.379692"/>
     <use style="fill:#1f77b4;stroke:#1f77b4;" x="362.234943" xlink:href="#m015c142ed2" y="184.704932"/>
     <use style="fill:#1f77b4;stroke:#1f77b4;" x="354.668841" xlink:href="#m015c142ed2" y="170.694245"/>
     <use style="fill:#1f77b4;stroke:#1f77b4;" x="305.48918" xlink:href="#m015c142ed2" y="195.853222"/>
     <use style="fill:#1f77b4;stroke:#1f77b4;" x="309.272231" xlink:href="#m015c142ed2" y="189.599945"/>
     <use style="fill:#1f77b4;stroke:#1f77b4;" x="325.092262" xlink:href="#m015c142ed2" y="188.031245"/>
     <use style="fill:#1f77b4;stroke:#1f77b4;" x="300.330475" xlink:href="#m015c142ed2" y="191.214079"/>
     <use style="fill:#1f77b4;stroke:#1f77b4;" x="310.647886" xlink:href="#m015c142ed2" y="192.227995"/>
     <use style="fill:#1f77b4;stroke:#1f77b4;" x="278.663911" xlink:href="#m015c142ed2" y="179.793181"/>
     <use style="fill:#1f77b4;stroke:#1f77b4;" x="260.09257" xlink:href="#m015c142ed2" y="143.713089"/>
     <use style="fill:#1f77b4;stroke:#1f77b4;" x="271.097809" xlink:href="#m015c142ed2" y="177.832306"/>
     <use style="fill:#1f77b4;stroke:#1f77b4;" x="263.531707" xlink:href="#m015c142ed2" y="174.733168"/>
     <use style="fill:#1f77b4;stroke:#1f77b4;" x="258.373002" xlink:href="#m015c142ed2" y="158.613344"/>
     <use style="fill:#1f77b4;stroke:#1f77b4;" x="247.023849" xlink:href="#m015c142ed2" y="126.046087"/>
     <use style="fill:#1f77b4;stroke:#1f77b4;" x="253.214296" xlink:href="#m015c142ed2" y="178.779265"/>
     <use style="fill:#1f77b4;stroke:#1f77b4;" x="239.457747" xlink:href="#m015c142ed2" y="158.728127"/>
     <use style="fill:#1f77b4;stroke:#1f77b4;" x="228.796422" xlink:href="#m015c142ed2" y="166.028798"/>
     <use style="fill:#1f77b4;stroke:#1f77b4;" x="204.034635" xlink:href="#m015c142ed2" y="111.982791"/>
     <use style="fill:#1f77b4;stroke:#1f77b4;" x="182.711985" xlink:href="#m015c142ed2" y="75.730525"/>
     <use style="fill:#1f77b4;stroke:#1f77b4;" x="153.479319" xlink:href="#m015c142ed2" y="68.190723"/>
     <use style="fill:#1f77b4;stroke:#1f77b4;" x="153.479319" xlink:href="#m015c142ed2" y="80.55858"/>
     <use style="fill:#1f77b4;stroke:#1f77b4;" x="133.532324" xlink:href="#m015c142ed2" y="50.930244"/>
     <use style="fill:#1f77b4;stroke:#1f77b4;" x="146.257131" xlink:href="#m015c142ed2" y="93.717962"/>
     <use style="fill:#1f77b4;stroke:#1f77b4;" x="57.871307" xlink:href="#m015c142ed2" y="71.586384"/>
     <use style="fill:#1f77b4;stroke:#1f77b4;" x="95.013988" xlink:href="#m015c142ed2" y="56.714824"/>
     <use style="fill:#1f77b4;stroke:#1f77b4;" x="118.056207" xlink:href="#m015c142ed2" y="82.062715"/>
     <use style="fill:#1f77b4;stroke:#1f77b4;" x="128.373618" xlink:href="#m015c142ed2" y="74.721392"/>
     <use style="fill:#1f77b4;stroke:#1f77b4;" x="101.204435" xlink:href="#m015c142ed2" y="17.083636"/>
     <use style="fill:#1f77b4;stroke:#1f77b4;" x="143.161908" xlink:href="#m015c142ed2" y="65.354629"/>
     <use style="fill:#1f77b4;stroke:#1f77b4;" x="167.579781" xlink:href="#m015c142ed2" y="67.958766"/>
    </g>
   </g>
   <g id="matplotlib.axis_1">
    <g id="xtick_1">
     <g id="line2d_1">
      <defs>
       <path d="M 0 0 
L 0 3.5 
" id="m0bfacd54eb" style="stroke:#000000;stroke-width:0.8;"/>
      </defs>
      <g>
       <use style="stroke:#000000;stroke-width:0.8;" x="93.982247" xlink:href="#m0bfacd54eb" y="224.64"/>
      </g>
     </g>
     <g id="text_1">
      <!-- 34 -->
      <defs>
       <path d="M 44.140625 20.3125 
Q 44.140625 11.328125 38.46875 6.046875 
Q 32.8125 0.78125 24.21875 0.78125 
Q 15.625 0.78125 9.953125 6.046875 
Q 4.296875 11.328125 4.296875 22.265625 
L 13.28125 22.265625 
Q 13.28125 14.84375 16.203125 11.515625 
Q 19.140625 8.203125 24.21875 8.203125 
Q 29.296875 8.203125 32.03125 11.328125 
Q 34.765625 14.453125 34.765625 21.09375 
Q 34.765625 26.5625 31.828125 29.6875 
Q 28.90625 32.8125 21.484375 32.8125 
L 21.484375 39.453125 
Q 27.734375 39.453125 30.65625 42.578125 
Q 33.59375 45.703125 33.59375 51.953125 
Q 33.59375 56.640625 31.4375 59.375 
Q 29.296875 62.109375 24.609375 62.109375 
Q 19.921875 62.109375 17.375 58.78125 
Q 14.84375 55.46875 14.453125 49.21875 
L 5.859375 49.21875 
Q 6.640625 58.203125 11.515625 63.671875 
Q 16.40625 69.140625 24.609375 69.140625 
Q 33.203125 69.140625 37.890625 64.25 
Q 42.578125 59.375 42.578125 52.34375 
Q 42.578125 45.703125 40.234375 41.984375 
Q 37.890625 38.28125 32.421875 36.328125 
Q 37.890625 35.15625 41.015625 30.859375 
Q 44.140625 26.5625 44.140625 20.3125 
z
" id="SimHei-51"/>
       <path d="M 46.484375 18.75 
L 38.28125 18.75 
L 38.28125 1.5625 
L 29.296875 1.5625 
L 29.296875 18.75 
L 3.125 18.75 
L 3.125 26.171875 
L 29.296875 69.140625 
L 38.28125 69.140625 
L 38.28125 26.171875 
L 46.484375 26.171875 
z
M 29.296875 26.171875 
L 29.296875 55.078125 
L 11.71875 26.171875 
z
" id="SimHei-52"/>
      </defs>
      <g transform="translate(88.982247 238.475937)scale(0.1 -0.1)">
       <use xlink:href="#SimHei-51"/>
       <use x="50" xlink:href="#SimHei-52"/>
      </g>
     </g>
    </g>
    <g id="xtick_2">
     <g id="line2d_2">
      <g>
       <use style="stroke:#000000;stroke-width:0.8;" x="162.764989" xlink:href="#m0bfacd54eb" y="224.64"/>
      </g>
     </g>
     <g id="text_2">
      <!-- 36 -->
      <defs>
       <path d="M 44.53125 24.21875 
Q 44.53125 13.28125 39.84375 7.03125 
Q 35.15625 0.78125 25.78125 0.78125 
Q 16.40625 0.78125 10.9375 8.59375 
Q 5.46875 16.40625 5.46875 33.984375 
Q 5.46875 50 11.125 59.5625 
Q 16.796875 69.140625 27.34375 69.140625 
Q 34.765625 69.140625 39.25 63.671875 
Q 43.75 58.203125 43.75 51.5625 
L 34.765625 51.5625 
Q 34.765625 55.46875 32.609375 58.59375 
Q 30.46875 61.71875 26.953125 61.71875 
Q 21.09375 61.71875 17.96875 55.65625 
Q 14.84375 49.609375 14.453125 37.109375 
Q 17.1875 42.1875 20.3125 44.140625 
Q 23.4375 46.09375 27.734375 46.09375 
Q 35.15625 46.09375 39.84375 40.234375 
Q 44.53125 34.375 44.53125 24.21875 
z
M 35.15625 24.21875 
Q 35.15625 31.25 32.8125 35.15625 
Q 30.46875 39.0625 26.171875 39.0625 
Q 21.09375 39.0625 18.15625 35.15625 
Q 15.234375 31.25 15.234375 25.78125 
Q 15.234375 17.1875 18.15625 12.5 
Q 21.09375 7.8125 26.171875 7.8125 
Q 29.6875 7.8125 32.421875 11.328125 
Q 35.15625 14.84375 35.15625 24.21875 
z
" id="SimHei-54"/>
      </defs>
      <g transform="translate(157.764989 238.475937)scale(0.1 -0.1)">
       <use xlink:href="#SimHei-51"/>
       <use x="50" xlink:href="#SimHei-54"/>
      </g>
     </g>
    </g>
    <g id="xtick_3">
     <g id="line2d_3">
      <g>
       <use style="stroke:#000000;stroke-width:0.8;" x="231.547732" xlink:href="#m0bfacd54eb" y="224.64"/>
      </g>
     </g>
     <g id="text_3">
      <!-- 38 -->
      <defs>
       <path d="M 44.921875 20.703125 
Q 44.921875 10.9375 39.453125 5.859375 
Q 33.984375 0.78125 24.609375 0.78125 
Q 15.234375 0.78125 9.765625 5.859375 
Q 4.296875 10.9375 4.296875 20.703125 
Q 4.296875 25.78125 7.421875 29.875 
Q 10.546875 33.984375 16.015625 35.9375 
Q 11.328125 37.890625 8.78125 41.40625 
Q 6.25 44.921875 6.25 50.390625 
Q 6.25 58.984375 11.71875 64.0625 
Q 17.1875 69.140625 24.609375 69.140625 
Q 32.03125 69.140625 37.5 64.0625 
Q 42.96875 58.984375 42.96875 50.390625 
Q 42.96875 44.921875 40.421875 41.40625 
Q 37.890625 37.890625 33.203125 35.9375 
Q 38.671875 33.984375 41.796875 29.875 
Q 44.921875 25.78125 44.921875 20.703125 
z
M 34.375 50.390625 
Q 34.375 56.640625 31.640625 59.375 
Q 28.90625 62.109375 24.609375 62.109375 
Q 20.3125 62.109375 17.578125 59.375 
Q 14.84375 56.640625 14.84375 50.390625 
Q 14.84375 44.140625 17.765625 41.59375 
Q 20.703125 39.0625 24.609375 39.0625 
Q 28.515625 39.0625 31.4375 41.59375 
Q 34.375 44.140625 34.375 50.390625 
z
M 35.9375 20.703125 
Q 35.9375 26.171875 33 29.296875 
Q 30.078125 32.421875 24.609375 32.421875 
Q 19.140625 32.421875 16.203125 29.296875 
Q 13.28125 26.171875 13.28125 20.703125 
Q 13.28125 14.453125 16.40625 11.125 
Q 19.53125 7.8125 24.609375 7.8125 
Q 29.6875 7.8125 32.8125 11.125 
Q 35.9375 14.453125 35.9375 20.703125 
z
" id="SimHei-56"/>
      </defs>
      <g transform="translate(226.547732 238.475937)scale(0.1 -0.1)">
       <use xlink:href="#SimHei-51"/>
       <use x="50" xlink:href="#SimHei-56"/>
      </g>
     </g>
    </g>
    <g id="xtick_4">
     <g id="line2d_4">
      <g>
       <use style="stroke:#000000;stroke-width:0.8;" x="300.330475" xlink:href="#m0bfacd54eb" y="224.64"/>
      </g>
     </g>
     <g id="text_4">
      <!-- 40 -->
      <defs>
       <path d="M 46.484375 35.15625 
Q 46.484375 21.09375 41.40625 10.9375 
Q 36.328125 0.78125 25 0.78125 
Q 13.671875 0.78125 8.390625 10.9375 
Q 3.125 21.09375 3.125 35.15625 
Q 3.125 49.21875 8.390625 59.171875 
Q 13.671875 69.140625 25 69.140625 
Q 36.328125 69.140625 41.40625 59.171875 
Q 46.484375 49.21875 46.484375 35.15625 
z
M 37.109375 35.15625 
Q 37.109375 47.65625 34.171875 54.6875 
Q 31.25 61.71875 25 61.71875 
Q 18.75 61.71875 15.625 54.6875 
Q 12.5 47.65625 12.5 35.15625 
Q 12.5 22.65625 15.625 15.421875 
Q 18.75 8.203125 25 8.203125 
Q 31.25 8.203125 34.171875 15.421875 
Q 37.109375 22.65625 37.109375 35.15625 
z
" id="SimHei-48"/>
      </defs>
      <g transform="translate(295.330475 238.475937)scale(0.1 -0.1)">
       <use xlink:href="#SimHei-52"/>
       <use x="50" xlink:href="#SimHei-48"/>
      </g>
     </g>
    </g>
    <g id="xtick_5">
     <g id="line2d_5">
      <g>
       <use style="stroke:#000000;stroke-width:0.8;" x="369.113217" xlink:href="#m0bfacd54eb" y="224.64"/>
      </g>
     </g>
     <g id="text_5">
      <!-- 42 -->
      <defs>
       <path d="M 44.53125 1.5625 
L 4.6875 1.5625 
L 4.6875 7.8125 
Q 7.03125 14.0625 11.125 19.328125 
Q 15.234375 24.609375 23.046875 31.25 
Q 28.90625 36.328125 31.4375 40.625 
Q 33.984375 44.921875 33.984375 50 
Q 33.984375 55.078125 31.828125 58.390625 
Q 29.6875 61.71875 25 61.71875 
Q 21.09375 61.71875 18.15625 58.203125 
Q 15.234375 54.6875 15.234375 45.703125 
L 6.25 45.703125 
Q 6.640625 57.03125 11.515625 63.078125 
Q 16.40625 69.140625 25.390625 69.140625 
Q 33.984375 69.140625 38.671875 63.859375 
Q 43.359375 58.59375 43.359375 49.609375 
Q 43.359375 42.1875 39.0625 36.71875 
Q 34.765625 31.25 28.515625 25.78125 
Q 21.484375 19.53125 18.75 16.40625 
Q 16.015625 13.28125 13.671875 8.984375 
L 44.53125 8.984375 
z
" id="SimHei-50"/>
      </defs>
      <g transform="translate(364.113217 238.475937)scale(0.1 -0.1)">
       <use xlink:href="#SimHei-52"/>
       <use x="50" xlink:href="#SimHei-50"/>
      </g>
     </g>
    </g>
    <g id="text_6">
     <!-- 纬度y/度 -->
     <defs>
      <path d="M 18.359375 79.6875 
Q 22.65625 77.34375 27.734375 76.171875 
Q 24.609375 72.65625 21.09375 65.421875 
Q 17.578125 58.203125 13.28125 50.78125 
Q 21.875 51.171875 25 51.171875 
Q 28.515625 57.8125 30.078125 63.671875 
Q 33.984375 61.71875 39.0625 60.15625 
Q 36.71875 57.8125 32.609375 50.78125 
Q 28.515625 43.75 18.75 27.34375 
Q 28.90625 28.515625 35.9375 29.296875 
Q 34.375 26.171875 33.984375 21.875 
Q 30.859375 22.265625 23.625 21.484375 
Q 16.40625 20.703125 10.546875 19.140625 
Q 9.765625 23.4375 7.8125 26.5625 
Q 11.328125 28.90625 15.03125 33.390625 
Q 18.75 37.890625 22.65625 45.3125 
Q 13.671875 44.921875 8.203125 42.96875 
Q 7.03125 47.265625 5.078125 50.78125 
Q 8.59375 54.296875 12.5 62.6875 
Q 16.40625 71.09375 18.359375 79.6875 
z
M 5.46875 6.640625 
Q 13.28125 7.421875 19.328125 8.203125 
Q 25.390625 8.984375 39.453125 12.109375 
Q 38.671875 8.203125 38.671875 5.078125 
Q 32.421875 3.90625 23.4375 2.140625 
Q 14.453125 0.390625 8.59375 -1.953125 
Q 7.03125 2.34375 5.46875 6.640625 
z
M 42.96875 66.40625 
Q 48.828125 66.015625 59.375 66.015625 
Q 59.375 72.65625 58.984375 80.078125 
L 67.1875 80.078125 
Q 66.796875 73.046875 66.796875 66.015625 
Q 82.8125 66.015625 88.28125 66.40625 
L 88.28125 59.375 
Q 82.421875 59.765625 66.796875 59.765625 
L 66.796875 46.875 
Q 79.296875 46.875 86.328125 47.265625 
L 86.328125 40.234375 
Q 79.296875 40.625 66.796875 40.625 
L 66.796875 28.90625 
L 92.578125 28.90625 
Q 92.1875 23.828125 91.59375 14.25 
Q 91.015625 4.6875 86.71875 3.125 
Q 82.421875 1.5625 76.953125 0.78125 
Q 76.171875 5.078125 73.828125 8.984375 
Q 83.203125 8.984375 83.59375 11.90625 
Q 83.984375 14.84375 84.375 22.65625 
L 66.796875 22.65625 
L 66.796875 4.6875 
Q 66.796875 -1.171875 67.1875 -9.375 
L 58.984375 -9.375 
Q 59.375 -1.171875 59.375 4.296875 
L 59.375 22.65625 
Q 46.484375 22.65625 40.625 22.265625 
L 40.625 29.296875 
Q 47.65625 28.90625 59.375 28.90625 
L 59.375 40.625 
Q 49.609375 40.625 42.1875 40.234375 
L 42.1875 47.265625 
Q 50.390625 46.875 59.375 46.875 
L 59.375 59.765625 
Q 49.609375 59.765625 42.96875 59.375 
z
" id="SimHei-32428"/>
      <path d="M 46.484375 45.703125 
L 46.484375 37.5 
L 67.1875 37.5 
L 67.1875 45.703125 
z
M 27.34375 51.953125 
Q 34.765625 51.5625 39.453125 51.5625 
Q 39.453125 56.25 39.0625 59.765625 
L 46.875 59.765625 
Q 46.484375 56.640625 46.484375 51.5625 
L 67.1875 51.5625 
Q 67.1875 56.25 66.796875 60.15625 
L 74.609375 60.15625 
Q 74.21875 56.25 74.21875 51.5625 
Q 82.421875 51.5625 88.671875 51.953125 
L 88.671875 45.3125 
Q 82.8125 45.703125 74.21875 45.703125 
Q 74.21875 36.328125 74.609375 31.640625 
L 39.0625 31.640625 
Q 39.453125 36.71875 39.453125 45.703125 
Q 34.765625 45.703125 27.34375 45.3125 
z
M 45.703125 19.140625 
Q 39.0625 19.140625 31.640625 18.75 
L 31.640625 25.390625 
Q 39.0625 25 45.3125 25 
L 79.6875 25 
Q 76.171875 17.96875 71.875 12.109375 
Q 67.578125 6.25 62.890625 2.734375 
Q 68.75 0 76.359375 -1.171875 
Q 83.984375 -2.34375 91.796875 -1.953125 
Q 88.671875 -5.46875 87.109375 -10.15625 
Q 78.515625 -9.375 71.484375 -7.421875 
Q 64.453125 -5.46875 56.640625 -2.34375 
Q 48.828125 -5.46875 41.40625 -7.21875 
Q 33.984375 -8.984375 25.78125 -10.15625 
Q 24.609375 -6.25 22.265625 -2.34375 
Q 30.46875 -2.34375 37.109375 -1.171875 
Q 43.75 0 51.171875 2.34375 
Q 46.484375 6.25 39.0625 19.140625 
L 46.875 19.140625 
Q 50.78125 11.71875 57.421875 6.25 
Q 63.28125 10.546875 68.75 19.140625 
z
M 48.828125 68.75 
Q 47.65625 74.21875 46.09375 79.6875 
Q 49.21875 80.078125 54.296875 81.25 
Q 55.46875 76.171875 57.03125 68.75 
L 71.484375 68.75 
Q 79.296875 69.140625 89.0625 69.53125 
L 89.0625 62.5 
Q 79.6875 62.890625 72.265625 62.890625 
L 22.65625 62.890625 
Q 22.65625 45.3125 22.265625 34.5625 
Q 21.875 23.828125 19.71875 13.671875 
Q 17.578125 3.515625 11.328125 -8.59375 
Q 7.8125 -4.6875 4.296875 -3.125 
Q 10.15625 5.46875 12.6875 15.8125 
Q 15.234375 26.171875 15.421875 42.375 
Q 15.625 58.59375 15.234375 68.75 
z
" id="SimHei-24230"/>
      <path d="M 45.703125 45.3125 
L 27.734375 -1.953125 
Q 26.171875 -7.421875 23.046875 -10.15625 
Q 19.921875 -12.890625 15.234375 -12.890625 
Q 13.28125 -12.890625 11.515625 -12.6875 
Q 9.765625 -12.5 8.203125 -11.71875 
L 8.203125 -3.90625 
Q 9.765625 -4.6875 11.328125 -5.078125 
Q 12.890625 -5.46875 14.0625 -5.46875 
Q 17.1875 -5.46875 18.359375 -4.484375 
Q 19.53125 -3.515625 20.703125 0 
L 3.515625 45.3125 
L 12.109375 45.3125 
L 24.609375 10.9375 
L 25 10.9375 
L 37.109375 45.3125 
z
" id="SimHei-121"/>
      <path d="M 47.265625 70.703125 
L 5.859375 -3.125 
L 1.953125 -0.78125 
L 43.359375 73.046875 
z
" id="SimHei-47"/>
     </defs>
     <g transform="translate(190.053125 251.89)scale(0.1 -0.1)">
      <use xlink:href="#SimHei-32428"/>
      <use x="100" xlink:href="#SimHei-24230"/>
      <use x="200" xlink:href="#SimHei-121"/>
      <use x="250" xlink:href="#SimHei-47"/>
      <use x="300" xlink:href="#SimHei-24230"/>
     </g>
    </g>
   </g>
   <g id="matplotlib.axis_2">
    <g id="ytick_1">
     <g id="line2d_6">
      <defs>
       <path d="M 0 0 
L -3.5 0 
" id="m2e388476af" style="stroke:#000000;stroke-width:0.8;"/>
      </defs>
      <g>
       <use style="stroke:#000000;stroke-width:0.8;" x="42.653125" xlink:href="#m2e388476af" y="205.219985"/>
      </g>
     </g>
     <g id="text_7">
      <!-- 0 -->
      <g transform="translate(30.653125 208.637953)scale(0.1 -0.1)">
       <use xlink:href="#SimHei-48"/>
      </g>
     </g>
    </g>
    <g id="ytick_2">
     <g id="line2d_7">
      <g>
       <use style="stroke:#000000;stroke-width:0.8;" x="42.653125" xlink:href="#m2e388476af" y="157.393776"/>
      </g>
     </g>
     <g id="text_8">
      <!-- 200 -->
      <g transform="translate(20.653125 160.811745)scale(0.1 -0.1)">
       <use xlink:href="#SimHei-50"/>
       <use x="50" xlink:href="#SimHei-48"/>
       <use x="100" xlink:href="#SimHei-48"/>
      </g>
     </g>
    </g>
    <g id="ytick_3">
     <g id="line2d_8">
      <g>
       <use style="stroke:#000000;stroke-width:0.8;" x="42.653125" xlink:href="#m2e388476af" y="109.567567"/>
      </g>
     </g>
     <g id="text_9">
      <!-- 400 -->
      <g transform="translate(20.653125 112.985536)scale(0.1 -0.1)">
       <use xlink:href="#SimHei-52"/>
       <use x="50" xlink:href="#SimHei-48"/>
       <use x="100" xlink:href="#SimHei-48"/>
      </g>
     </g>
    </g>
    <g id="ytick_4">
     <g id="line2d_9">
      <g>
       <use style="stroke:#000000;stroke-width:0.8;" x="42.653125" xlink:href="#m2e388476af" y="61.741359"/>
      </g>
     </g>
     <g id="text_10">
      <!-- 600 -->
      <g transform="translate(20.653125 65.159327)scale(0.1 -0.1)">
       <use xlink:href="#SimHei-54"/>
       <use x="50" xlink:href="#SimHei-48"/>
       <use x="100" xlink:href="#SimHei-48"/>
      </g>
     </g>
    </g>
    <g id="ytick_5">
     <g id="line2d_10">
      <g>
       <use style="stroke:#000000;stroke-width:0.8;" x="42.653125" xlink:href="#m2e388476af" y="13.91515"/>
      </g>
     </g>
     <g id="text_11">
      <!-- 800 -->
      <g transform="translate(20.653125 17.333119)scale(0.1 -0.1)">
       <use xlink:href="#SimHei-56"/>
       <use x="50" xlink:href="#SimHei-48"/>
       <use x="100" xlink:href="#SimHei-48"/>
      </g>
     </g>
    </g>
    <g id="text_12">
     <!-- 年降水量p/mm -->
     <defs>
      <path d="M 15.625 40.625 
Q 11.328125 44.140625 7.03125 44.921875 
Q 15.234375 53.125 22.453125 64.84375 
Q 29.6875 76.5625 30.46875 81.640625 
Q 35.9375 79.296875 40.625 78.125 
Q 37.5 74.609375 33.203125 66.40625 
L 70.703125 66.40625 
Q 79.296875 66.40625 87.890625 66.796875 
L 87.890625 60.15625 
Q 80.078125 60.546875 70.703125 60.546875 
L 58.59375 60.546875 
L 58.59375 44.140625 
Q 72.265625 44.140625 83.203125 44.53125 
L 83.203125 37.890625 
Q 72.265625 38.28125 58.59375 38.28125 
L 58.59375 19.140625 
L 77.734375 19.140625 
Q 85.9375 19.140625 92.96875 19.53125 
L 92.96875 12.890625 
Q 86.328125 13.28125 77.734375 13.28125 
L 58.59375 13.28125 
L 58.59375 5.078125 
Q 58.59375 -2.34375 58.984375 -9.765625 
L 50.78125 -9.765625 
Q 51.171875 -2.34375 51.171875 5.078125 
L 51.171875 13.28125 
L 25.390625 13.28125 
Q 15.234375 13.28125 5.859375 12.890625 
L 5.859375 19.53125 
Q 14.84375 19.140625 23.4375 19.140625 
Q 23.4375 35.9375 23.046875 44.140625 
L 51.171875 44.140625 
L 51.171875 60.546875 
L 30.078125 60.546875 
Q 21.875 48.4375 15.625 40.625 
z
M 30.859375 38.28125 
L 30.859375 19.140625 
L 51.171875 19.140625 
L 51.171875 38.28125 
z
" id="SimHei-24180"/>
      <path d="M 8.59375 76.5625 
L 37.109375 76.5625 
Q 35.15625 71.875 32.03125 62.6875 
Q 28.90625 53.515625 26.5625 46.09375 
Q 32.8125 37.890625 34.765625 33.59375 
Q 36.71875 29.296875 36.125 24.015625 
Q 35.546875 18.75 31.828125 15.8125 
Q 28.125 12.890625 21.875 12.109375 
Q 21.09375 16.015625 18.75 20.703125 
Q 26.171875 20.3125 27.53125 23.4375 
Q 28.90625 26.5625 28.3125 30.265625 
Q 27.734375 33.984375 19.53125 45.3125 
Q 21.09375 49.21875 23.234375 55.65625 
Q 25.390625 62.109375 27.34375 70.3125 
L 16.015625 70.3125 
L 16.015625 -8.984375 
L 8.59375 -8.984375 
Q 8.984375 5.078125 8.984375 13.671875 
L 8.984375 57.8125 
Q 8.984375 66.796875 8.59375 76.5625 
z
M 54.6875 81.640625 
Q 61.328125 78.90625 63.671875 77.734375 
Q 60.15625 73.828125 58.984375 71.484375 
L 87.5 71.484375 
Q 83.984375 64.453125 80.46875 59.375 
Q 76.953125 54.296875 72.265625 49.609375 
Q 75.78125 47.265625 81.640625 46.09375 
Q 87.5 44.921875 95.703125 44.53125 
Q 93.359375 39.453125 92.96875 36.328125 
Q 82.8125 38.671875 76.5625 40.8125 
Q 70.3125 42.96875 66.40625 45.703125 
Q 60.546875 42.1875 55.46875 39.84375 
Q 50.390625 37.5 40.625 33.984375 
Q 39.453125 37.109375 36.328125 41.015625 
Q 43.75 42.1875 49.40625 44.140625 
Q 55.078125 46.09375 60.546875 49.609375 
Q 55.859375 54.6875 52.34375 60.15625 
Q 47.65625 52.734375 45.703125 50.390625 
Q 42.96875 53.125 39.453125 55.078125 
Q 43.75 58.984375 47.453125 65.03125 
Q 51.171875 71.09375 54.6875 81.640625 
z
M 55.46875 65.625 
Q 62.5 56.25 66.015625 53.125 
Q 72.265625 58.203125 75.78125 65.625 
z
M 71.09375 39.453125 
Q 70.703125 33.203125 70.703125 30.859375 
L 78.90625 30.859375 
Q 81.640625 30.859375 88.671875 31.25 
L 88.671875 24.21875 
Q 84.375 24.609375 79.6875 24.609375 
L 71.09375 24.609375 
L 71.09375 12.890625 
L 80.46875 12.890625 
Q 86.328125 12.890625 91.796875 13.28125 
L 91.796875 6.25 
Q 86.71875 6.640625 80.859375 6.640625 
L 71.09375 6.640625 
L 71.09375 0.78125 
Q 71.09375 -4.6875 71.484375 -8.984375 
L 63.671875 -8.984375 
Q 64.0625 -4.296875 64.0625 0.390625 
L 64.0625 6.640625 
L 40.625 6.640625 
Q 42.578125 16.015625 42.578125 20.703125 
L 50.390625 19.53125 
Q 48.828125 14.84375 48.828125 12.890625 
L 64.0625 12.890625 
L 64.0625 24.609375 
L 54.296875 24.609375 
Q 48.4375 24.609375 43.359375 24.21875 
L 43.359375 31.25 
Q 50.390625 30.859375 54.296875 30.859375 
L 64.0625 30.859375 
Q 64.0625 35.546875 63.671875 39.453125 
z
" id="SimHei-38477"/>
      <path d="M 7.421875 55.46875 
Q 14.453125 55.078125 19.921875 55.078125 
L 40.625 55.078125 
Q 38.671875 44.921875 35.734375 36.515625 
Q 32.8125 28.125 27.921875 19.921875 
Q 23.046875 11.71875 12.890625 1.171875 
Q 10.15625 4.6875 4.6875 6.640625 
Q 15.234375 14.453125 21.671875 24.609375 
Q 28.125 34.765625 31.25 48.046875 
L 20.3125 48.046875 
Q 14.84375 48.046875 7.421875 47.65625 
z
M 44.921875 80.078125 
L 54.296875 80.078125 
Q 53.90625 73.828125 53.703125 69.328125 
Q 53.515625 64.84375 54.484375 58 
Q 55.46875 51.171875 60.9375 42.578125 
Q 77.34375 55.859375 80.46875 62.5 
Q 84.765625 58.59375 89.453125 55.859375 
Q 83.59375 52.34375 78.3125 47.84375 
Q 73.046875 43.359375 64.84375 35.9375 
Q 67.96875 29.296875 75.96875 21.28125 
Q 83.984375 13.28125 95.3125 9.375 
Q 89.0625 6.25 87.890625 1.5625 
Q 73.046875 10.546875 65.234375 21.484375 
Q 57.421875 32.421875 53.515625 43.359375 
L 53.515625 0 
Q 53.90625 -5.078125 49.40625 -7.421875 
Q 44.921875 -9.765625 37.890625 -10.546875 
Q 37.5 -6.25 34.375 -1.5625 
Q 40.625 -2.34375 43.15625 -1.75 
Q 45.703125 -1.171875 45.703125 3.125 
L 45.703125 64.453125 
Q 45.703125 73.828125 44.921875 80.078125 
z
" id="SimHei-27700"/>
      <path d="M 53.90625 33.984375 
L 53.90625 28.125 
L 74.21875 28.125 
L 74.21875 33.984375 
z
M 53.90625 23.828125 
L 53.90625 18.359375 
L 74.21875 18.359375 
L 74.21875 23.828125 
z
M 26.171875 33.984375 
L 26.171875 28.125 
L 46.875 28.125 
L 46.875 33.984375 
z
M 26.171875 23.828125 
L 26.171875 18.359375 
L 46.875 18.359375 
L 46.875 23.828125 
z
M 18.75 38.28125 
L 82.03125 38.28125 
Q 81.25 33.59375 81.25 27.140625 
Q 81.25 20.703125 82.03125 14.0625 
L 53.90625 14.0625 
L 53.90625 7.8125 
L 71.875 7.8125 
Q 78.125 8.203125 83.984375 8.203125 
L 83.984375 2.734375 
Q 78.125 3.515625 71.875 3.515625 
L 53.90625 3.515625 
L 53.90625 -3.515625 
L 80.078125 -3.515625 
Q 86.71875 -3.125 92.96875 -3.125 
L 92.96875 -8.203125 
Q 86.71875 -7.8125 80.078125 -7.8125 
L 20.3125 -7.8125 
Q 14.0625 -7.8125 7.421875 -8.203125 
L 7.421875 -3.125 
Q 14.453125 -3.125 20.3125 -3.515625 
L 46.875 -3.515625 
L 46.875 3.515625 
L 27.34375 3.515625 
Q 21.484375 3.515625 15.625 2.734375 
L 15.625 8.203125 
Q 21.875 8.203125 27.34375 7.8125 
L 46.875 7.8125 
L 46.875 14.0625 
L 18.75 14.0625 
Q 19.140625 20.3125 19.140625 26.75 
Q 19.140625 33.203125 18.75 38.28125 
z
M 26.171875 74.609375 
L 26.171875 67.96875 
L 74.21875 67.96875 
L 74.21875 74.609375 
z
M 26.171875 63.671875 
L 26.171875 57.421875 
L 74.21875 57.421875 
L 74.21875 63.671875 
z
M 18.75 78.90625 
L 82.03125 78.90625 
Q 81.25 72.65625 81.25 67.1875 
Q 81.25 61.71875 82.03125 53.125 
L 18.75 53.125 
Q 19.140625 61.71875 18.9375 67.1875 
Q 18.75 72.65625 18.75 78.90625 
z
M 7.421875 49.21875 
Q 17.1875 48.828125 27.34375 48.4375 
L 75.390625 48.4375 
Q 84.375 48.828125 92.1875 49.21875 
L 92.1875 43.75 
Q 84.375 44.140625 75.78125 44.140625 
L 27.34375 44.140625 
Q 17.1875 44.140625 7.421875 43.75 
z
" id="SimHei-37327"/>
      <path d="M 44.53125 23.4375 
Q 44.53125 12.109375 39.0625 6.25 
Q 33.59375 0.390625 25.78125 0.390625 
Q 21.484375 0.390625 18.359375 2.140625 
Q 15.234375 3.90625 12.890625 7.421875 
L 12.890625 -12.890625 
L 5.078125 -12.890625 
L 5.078125 45.3125 
L 12.890625 45.3125 
L 12.890625 39.453125 
Q 15.234375 42.96875 18.359375 44.53125 
Q 21.484375 46.09375 25.78125 46.09375 
Q 33.59375 46.09375 39.0625 40.421875 
Q 44.53125 34.765625 44.53125 23.4375 
z
M 35.9375 23.4375 
Q 35.9375 30.859375 33 34.953125 
Q 30.078125 39.0625 24.21875 39.0625 
Q 19.53125 39.0625 16.203125 34.953125 
Q 12.890625 30.859375 12.890625 23.4375 
Q 12.890625 16.015625 16.203125 11.71875 
Q 19.53125 7.421875 24.21875 7.421875 
Q 30.078125 7.421875 33 11.71875 
Q 35.9375 16.015625 35.9375 23.4375 
z
" id="SimHei-112"/>
      <path d="M 48.046875 1.5625 
L 40.234375 1.5625 
L 40.234375 33.203125 
Q 40.234375 35.546875 39.453125 37.109375 
Q 38.671875 38.671875 36.328125 38.671875 
Q 33.59375 38.671875 31.25 35.734375 
Q 28.90625 32.8125 28.90625 28.125 
L 28.90625 1.5625 
L 21.09375 1.5625 
L 21.09375 33.203125 
Q 21.09375 35.546875 20.3125 37.109375 
Q 19.53125 38.671875 17.1875 38.671875 
Q 14.453125 38.671875 12.109375 35.734375 
Q 9.765625 32.8125 9.765625 28.125 
L 9.765625 1.5625 
L 1.953125 1.5625 
L 1.953125 45.3125 
L 9.765625 45.3125 
L 9.765625 39.453125 
Q 11.71875 42.578125 14.453125 44.328125 
Q 17.1875 46.09375 20.3125 46.09375 
Q 23.4375 46.09375 25.578125 44.328125 
Q 27.734375 42.578125 28.515625 39.453125 
Q 30.46875 42.578125 33 44.328125 
Q 35.546875 46.09375 38.671875 46.09375 
Q 43.359375 46.09375 45.703125 43.546875 
Q 48.046875 41.015625 48.046875 36.328125 
z
" id="SimHei-109"/>
     </defs>
     <g transform="translate(15.364063 145.92)rotate(-90)scale(0.1 -0.1)">
      <use xlink:href="#SimHei-24180"/>
      <use x="100" xlink:href="#SimHei-38477"/>
      <use x="200" xlink:href="#SimHei-27700"/>
      <use x="300" xlink:href="#SimHei-37327"/>
      <use x="400" xlink:href="#SimHei-112"/>
      <use x="450" xlink:href="#SimHei-47"/>
      <use x="500" xlink:href="#SimHei-109"/>
      <use x="550" xlink:href="#SimHei-109"/>
     </g>
    </g>
   </g>
   <g id="line2d_11">
    <path clip-path="url(#p1348ab7750)" d="M 317.52616 189.206512 
L 183.399812 112.556958 
L 146.601045 91.527465 
L 213.664219 129.852242 
L 143.161908 89.562092 
L 87.7918 57.919583 
L 150.040182 93.492838 
L 182.368071 111.967346 
L 292.420459 174.859288 
L 164.484558 101.747406 
L 100.860521 65.388002 
L 141.442339 88.579405 
L 149.696268 93.296301 
L 93.982247 61.457255 
L 107.050968 68.925673 
L 119.087948 75.804479 
L 113.929242 72.85642 
L 204.034635 124.349197 
L 132.500583 83.469435 
L 142.817994 89.365554 
L 119.087948 75.804479 
L 157.606284 97.816659 
L 85.384404 56.543822 
L 73.347424 49.665016 
L 362.234943 214.756364 
L 354.668841 210.432543 
L 305.48918 182.327706 
L 309.272231 184.489617 
L 325.092262 193.530333 
L 300.330475 179.379646 
L 310.647886 185.275766 
L 278.663911 166.997795 
L 260.09257 156.38478 
L 271.097809 162.673974 
L 263.531707 158.350153 
L 258.373002 155.402093 
L 247.023849 148.916362 
L 253.214296 152.454034 
L 239.457747 144.592541 
L 228.796422 138.499884 
L 204.034635 124.349197 
L 182.711985 112.163883 
L 153.479319 95.458211 
L 153.479319 95.458211 
L 133.532324 84.059047 
L 146.257131 91.330928 
L 57.871307 40.820837 
L 95.013988 62.046867 
L 118.056207 75.214868 
L 128.373618 81.110987 
L 101.204435 65.584539 
L 143.161908 89.562092 
L 167.579781 103.516241 
" style="fill:none;stroke:#000000;stroke-linecap:square;stroke-width:2;"/>
   </g>
   <g id="patch_3">
    <path d="M 42.653125 224.64 
L 42.653125 7.2 
" style="fill:none;stroke:#000000;stroke-linecap:square;stroke-linejoin:miter;stroke-width:0.8;"/>
   </g>
   <g id="patch_4">
    <path d="M 377.453125 224.64 
L 377.453125 7.2 
" style="fill:none;stroke:#000000;stroke-linecap:square;stroke-linejoin:miter;stroke-width:0.8;"/>
   </g>
   <g id="patch_5">
    <path d="M 42.653125 224.64 
L 377.453125 224.64 
" style="fill:none;stroke:#000000;stroke-linecap:square;stroke-linejoin:miter;stroke-width:0.8;"/>
   </g>
   <g id="patch_6">
    <path d="M 42.653125 7.2 
L 377.453125 7.2 
" style="fill:none;stroke:#000000;stroke-linecap:square;stroke-linejoin:miter;stroke-width:0.8;"/>
   </g>
  </g>
 </g>
 <defs>
  <clipPath id="p1348ab7750">
   <rect height="217.44" width="334.8" x="42.653125" y="7.2"/>
  </clipPath>
 </defs>
</svg>
